<svg xmlns="http://www.w3.org/2000/svg" viewBox="0 0 80 80" focusable="false"><path fill="#000000" d="M22.47 41.36c0-3.03.75-5.62 2.24-7.78 1.49-2.15 3.54-3.78 6.13-4.88 2.37-1.01 5.29-1.74 8.77-2.17 1.19-.13 3.12-.31 5.8-.53v-1.12c0-2.81-.31-4.7-.92-5.67-.92-1.32-2.37-1.98-4.35-1.98h-.53c-1.45.13-2.7.59-3.76 1.38-1.05.79-1.74 1.89-2.04 3.3-.18.88-.62 1.38-1.32 1.52l-7.58-.92c-.75-.18-1.12-.57-1.12-1.19 0-.13.02-.29.07-.46.75-3.91 2.58-6.81 5.5-8.7C32.28 10.27 35.7 9.22 39.61 9h1.65c5.01 0 8.92 1.3 11.73 3.89.44.44.85.92 1.22 1.42.37.51.67.96.89 1.35.22.4.42.97.59 1.71.18.75.31 1.26.4 1.55.09.29.15.9.2 1.85.04.94.07 1.5.07 1.68V38.4c0 1.14.16 2.19.49 3.13.33.94.65 1.63.96 2.04.31.42.81 1.09 1.52 2.01.26.4.4.75.4 1.05 0 .35-.18.66-.53.92-3.65 3.16-5.62 4.88-5.93 5.14-.53.4-1.16.44-1.91.13-.62-.53-1.15-1.03-1.61-1.52-.46-.48-.79-.83-.99-1.05s-.52-.65-.96-1.29c-.44-.64-.75-1.07-.92-1.29-2.46 2.68-4.88 4.35-7.25 5.01-1.49.44-3.34.66-5.54.66-3.38 0-6.16-1.04-8.34-3.13s-3.28-5.03-3.28-8.85zm11.34-1.32c0 1.71.43 3.09 1.29 4.12.86 1.03 2.01 1.55 3.46 1.55.13 0 .32-.02.56-.07.24-.04.41-.07.49-.07 1.85-.48 3.27-1.67 4.28-3.56.48-.83.85-1.75 1.09-2.74.24-.99.37-1.79.4-2.41.02-.62.03-1.63.03-3.03V32.2c-2.55 0-4.48.18-5.8.53-3.87 1.1-5.8 3.53-5.8 7.31z"></path><path fill="#FE971F" d="M3.85 58.15c.22-.35.57-.37 1.05-.07 10.98 6.37 22.94 9.56 35.85 9.56 8.61 0 17.11-1.6 25.51-4.81.22-.09.54-.22.96-.4.42-.18.71-.31.89-.4.66-.26 1.18-.13 1.55.4.37.53.25 1.01-.36 1.45-.79.57-1.8 1.23-3.03 1.98-3.78 2.24-8 3.98-12.65 5.21-4.66 1.23-9.21 1.85-13.64 1.85-6.85 0-13.34-1.2-19.44-3.59-6.12-2.41-11.59-5.78-16.43-10.13-.26-.22-.4-.44-.4-.66.01-.13.05-.26.14-.39z"></path><path fill="#FE971F" d="M62.71 59.27c.09-.18.22-.35.4-.53 1.1-.75 2.15-1.25 3.16-1.52 1.67-.44 3.3-.68 4.88-.73.44-.04.86-.02 1.25.07 1.98.18 3.16.51 3.56.99.18.26.26.66.26 1.19v.46c0 1.54-.42 3.35-1.25 5.44-.83 2.09-2 3.77-3.49 5.04-.22.18-.42.26-.59.26-.09 0-.18-.02-.26-.07-.26-.13-.33-.37-.2-.72 1.63-3.82 2.44-6.48 2.44-7.98 0-.48-.09-.83-.26-1.05-.44-.53-1.67-.79-3.69-.79-.75 0-1.63.04-2.64.13-1.1.13-2.11.26-3.03.4-.26 0-.44-.04-.53-.13-.09-.09-.11-.18-.07-.26-.01-.05.01-.12.06-.2z"></path></svg>