<svg width="48" height="57" viewBox="0 0 48 57" xmlns="http://www.w3.org/2000/svg" focusable="false"><path d="M31.28 5.105l.61-.915.6-.903 1.35-2.026a.544.544 0 00-.15-.75.547.547 0 00-.752.15l-1.446 2.18-.608.917-.617.926a17.778 17.778 0 00-6.44-1.185c-2.3 0-4.48.426-6.435 1.185l-.614-.928-.61-.914L14.722.66a.541.541 0 00-.9.6l1.35 2.026.6.903.61.91c-4.592 2.14-7.7 6.2-7.7 10.84h30.3c0-4.646-3.107-8.7-7.7-10.84zm-13.942 6.508c-.9 0-1.624-.727-1.624-1.625a1.623 1.623 0 113.246 0c0 .898-.726 1.625-1.622 1.625zm12.983 0a1.625 1.625 0 11.01 0zm-21.4 6.502h-.24v23.837c0 1.89 1.54 3.43 3.43 3.43h2.476c-.08.286-.13.59-.13.902v6.864c0 1.793 1.46 3.25 3.25 3.25s3.25-1.457 3.25-3.25v-6.864c0-.313-.05-.617-.13-.903h6.03c-.083.29-.13.59-.13.91v6.866c0 1.793 1.455 3.25 3.247 3.25s3.246-1.457 3.246-3.25V46.29c0-.314-.047-.618-.13-.904h2.473c1.89 0 3.425-1.54 3.425-3.43v-23.84H8.915zm-5.64 0a3.248 3.248 0 00-3.246 3.25V35.27a3.25 3.25 0 003.247 3.25 3.251 3.251 0 003.247-3.25V21.365a3.247 3.247 0 00-3.245-3.25zm41.12 0a3.246 3.246 0 00-3.245 3.25V35.27c0 1.794 1.453 3.25 3.247 3.25s3.247-1.456 3.247-3.25V21.365c0-1.796-1.45-3.25-3.244-3.25z" fill="#97C024" fill-rule="evenodd"></path></svg>