<svg width="48" height="58" viewBox="0 0 48 58" xmlns="http://www.w3.org/2000/svg" focusable="false"><path d="M26.993 4.393c2.083-2.45 5.604-4.27 8.51-4.393.37 3.402-.994 6.81-3.01 9.263-2.02 2.45-5.324 4.36-8.567 4.105-.44-3.33 1.193-6.8 3.067-8.975zM43.52 50.8c-2.41 3.535-4.903 7.05-8.84 7.123-3.873.073-5.115-2.302-9.536-2.302-4.426 0-5.81 2.23-9.468 2.377-3.8.143-6.69-3.818-9.12-7.338-4.964-7.2-8.756-20.352-3.658-29.227 2.523-4.408 7.046-7.197 11.946-7.27 3.732-.07 7.258 2.524 9.537 2.524 2.286 0 6.565-3.114 11.064-2.657 1.883.078 7.168.76 10.563 5.744-.27.176-6.31 3.702-6.236 11.046.075 8.773 7.665 11.688 7.753 11.728-.07.206-1.214 4.163-4 8.252z" fill="#919191" fill-rule="evenodd"></path></svg>