<svg xmlns="http://www.w3.org/2000/svg" viewBox="0 0 56 56" focusable="false"><path d="M51 4H5a4 4 0 00-4 4v16a4 4 0 004 4h25v-3l3.92 3H51a4 4 0 004-4V8a4 4 0 00-4-4z" fill="#d4f673"></path><path d="M51 3H5a5 5 0 00-5 5v16a5 5 0 005 5h24v17a1 1 0 001.55.83l5.06-3.37 4.5 9A1 1 0 0041 53a.93.93 0 00.45-.11l4-2a1 1 0 00.44-1.34l-4.46-8.92L47.27 39a1 1 0 00.34-1.75L36.88 29H51a5 5 0 005-5V8a5 5 0 00-5-5zM39.73 39a1 1 0 00-.65.56 1 1 0 000 .85l4.55 9.1-2.21 1.11-4.56-9.11a1 1 0 00-.63-.52A1.15 1.15 0 0036 41a1 1 0 00-.55.17l-4.45 3V27l13.81 10.58zM54 24a3 3 0 01-3 3H34.26l-3.65-2.79a1 1 0 00-1.05-.11 1 1 0 00-.56.9v2H5a3 3 0 01-3-3V8a3 3 0 013-3h46a3 3 0 013 3z" fill="#989ea2"></path><path d="M34.76 11.35A1 1 0 0034 11H22.8l-.38-2.17a1 1 0 00-1-.83H18a1 1 0 000 2h2.6l1.4 8.17a1.67 1.67 0 00.08.2.65.65 0 000 .13 1.07 1.07 0 00.14.16s.05.08.09.1a.74.74 0 00.21.13l.08.05a1 1 0 00.4.06h10a1 1 0 001-.84l1-6a1 1 0 00-.24-.81zM32.15 17h-8.3l-.67-4h9.64z" fill="#989ea2"></path><circle cx="23" cy="22" r="2" fill="#989ea2"></circle><circle cx="33" cy="22" r="2" fill="#989ea2"></circle></svg>