<svg xmlns="http://www.w3.org/2000/svg" width='40' viewBox="0 0 28 28" focusable="false"><path fill="#ECF5FE" d="M18 1L5 9h19z"></path><path fill="#BCDEFA" d="M1 9h26v18H1z"></path><g fill="#7E94AA"><path d="M25.36 8.07h-1.05l-1.25-4.66-2.14.57L18.64 0 4.6 8.07H2.66C1.19 8.07 0 9.26 0 10.74v14.6C0 26.81 1.19 28 2.66 28h22.7c1.47 0 2.64-1.19 2.64-2.66V10.73c0-1.47-1.16-2.66-2.64-2.66zm-3.7-2.22l.59 2.22L12 8l9.66-2.15zm-2.72-1.33L8 8l9.91-5.28 1.03 1.8zm7.09 20.81c0 .37-.29.67-.67.67H2.66c-.37 0-.66-.3-.66-.67v-14.6c0-.37.29-.73.66-.73h22.7c.37 0 .67.36.67.73v14.6z"></path><path d="M22 15c-1.66 0-3 1.34-3 2.99 0 1.65 1.34 2.99 3 2.99s3-1.34 3-2.99S23.66 15 22 15zm0 4.24a1.25 1.25 0 111.25-1.25c0 .68-.57 1.25-1.25 1.25z"></path></g><circle fill="#FBD88E" cx="22" cy="18" r="1.5"></circle></svg>