<svg xmlns="http://www.w3.org/2000/svg" width='40' viewBox="0 0 40 26"><path fill="#FF5F00" d="M14.59 3.21h10.82v19.44H14.59z"></path><path fill="#EB001B" d="M15.28 12.93c0-3.94 1.85-7.46 4.72-9.72A12.28 12.28 0 0012.36.57C5.53.56 0 6.1 0 12.93c0 6.83 5.53 12.36 12.36 12.36 2.88 0 5.54-.99 7.64-2.64a12.341 12.341 0 01-4.72-9.72z"></path><path fill="#F79E1B" d="M40 12.93c0 6.83-5.53 12.36-12.36 12.36-2.88 0-5.54-.99-7.64-2.64 2.88-2.26 4.72-5.78 4.72-9.72S22.88 5.47 20 3.21A12.28 12.28 0 0127.64.57C34.47.56 40 6.1 40 12.93z"></path></svg>