<svg xmlns="http://www.w3.org/2000/svg" viewBox="0 0 56 56" focusable="false"><path d="M5 1h46a4 4 0 014 4v6H1V5a4 4 0 014-4z" fill="#cde6ff"></path><path d="M51 0H5a5 5 0 00-5 5v46a5 5 0 005 5h46a5 5 0 005-5V5a5 5 0 00-5-5zM2 5a3 3 0 013-3h46a3 3 0 013 3v5H2zm49 49H5a3 3 0 01-3-3V12h52v39a3 3 0 01-3 3z" fill="#989ea2"></path><path d="M20 42a1 1 0 01-.71-.29l-8-8a1 1 0 010-1.42l8-8a1 1 0 011.42 1.42L13.41 33l7.3 7.29a1 1 0 010 1.42A1 1 0 0120 42zm16 0a1 1 0 01-.71-.29 1 1 0 010-1.42l7.3-7.29-7.3-7.29a1 1 0 011.42-1.42l8 8a1 1 0 010 1.42l-8 8A1 1 0 0136 42zm-12 7h-.26a1 1 0 01-.74-1.26l8-30a1 1 0 111.94.52l-8 30A1 1 0 0124 49z" fill="#989ea2"></path></svg>