<svg xmlns="http://www.w3.org/2000/svg" viewBox="0 0 56 56" focusable="false"><circle cx="28" cy="28" r="25" fill="#ecf5fe"></circle><path d="M28 54a26 26 0 1126-26 26 26 0 01-26 26zm0-50a24 24 0 1024 24A24 24 0 0028 4z" fill="#7e94aa"></path><path d="M46.12 24.9l3.1 3.1-3.11 3.1a25.62 25.62 0 01-36.23 0L6.78 28l3.1-3.1a25.62 25.62 0 0136.24 0z" fill="#fff"></path><path d="M28 39.6a26.55 26.55 0 01-18.83-7.79L5.36 28l3.81-3.81a26.67 26.67 0 0137.66 0L50.64 28l-3.81 3.81A26.55 26.55 0 0128 39.6zM8.19 28l2.4 2.4a24.65 24.65 0 0034.82 0l2.4-2.4-2.4-2.4a24.65 24.65 0 00-34.82 0z" fill="#7e94aa"></path><circle cx="28" cy="28" r="9.8" fill="#bcdefa"></circle><path d="M28 38.8A10.8 10.8 0 1138.8 28 10.81 10.81 0 0128 38.8zm0-19.6a8.8 8.8 0 108.8 8.8 8.81 8.81 0 00-8.8-8.8z" fill="#7e94aa"></path><circle cx="28" cy="28" r="5" fill="#7e94aa"></circle><circle cx="25" cy="26" r="2" fill="#fff"></circle></svg>