<svg xmlns="http://www.w3.org/2000/svg" viewBox="0 0 56 56" focusable="false"><defs><linearGradient id="fbm" x1="-17.01" y1="-231.1" x2="-17.01" y2="-231.12" gradientTransform="matrix(2482.78 0 0 -2480.26 42248.9 -573175.73)" gradientUnits="userSpaceOnUse"><stop offset="0" stop-color="#00b2ff"></stop><stop offset="1" stop-color="#006aff"></stop></linearGradient></defs><path d="M28-.06C12.23-.06 0 11.48 0 27.07a26.55 26.55 0 008.79 20.07 2.23 2.23 0 01.76 1.59l.15 5a2.24 2.24 0 003.15 2l5.55-2.45a2.19 2.19 0 011.49-.11A30.71 30.71 0 0028 54.2c15.77 0 28-11.54 28-27.13S43.77-.06 28-.06z" fill-rule="evenodd" fill="url(#fbm)"></path><path d="M11.19 35l8.22-13a4.21 4.21 0 016.08-1.12L32 25.75a1.68 1.68 0 002 0l8.83-6.7a1.33 1.33 0 011.93 1.77l-8.22 13A4.2 4.2 0 0130.52 35L24 30.06a1.71 1.71 0 00-2 0l-8.83 6.7A1.33 1.33 0 0111.19 35z" fill="#fff" fill-rule="evenodd"></path></svg>