<svg xmlns="http://www.w3.org/2000/svg" viewBox="0 0 56 56" focusable="false"><path d="M56 28a28 28 0 10-32.38 27.66V36.09h-7.1V28h7.1v-6.17c0-7 4.19-10.89 10.58-10.89a43.71 43.71 0 016.27.54v6.9h-3.53c-3.48 0-4.56 2.15-4.56 4.37V28h7.76l-1.24 8.09h-6.52v19.57A28 28 0 0056 28z" fill="#1877f2"></path><path d="M38.9 36.09L40.14 28h-7.76v-5.25c0-2.22 1.08-4.37 4.56-4.37h3.53v-6.9a43.71 43.71 0 00-6.27-.54c-6.39 0-10.58 3.87-10.58 10.89V28h-7.1v8.09h7.1v19.57a28.38 28.38 0 008.76 0V36.09z" fill="#fff"></path></svg>