<svg version="1.1" width='110' id="Layer_1" xmlns="http://www.w3.org/2000/svg" xmlns:xlink="http://www.w3.org/1999/xlink" x="0px" y="0px" viewBox="0 0 100 100" enable-background="new 0 0 100 100" xml:space="preserve" focusable="false">
<g id="extension">
	<path fill="#189DEE" d="M42.35,2c3.67,0,6.06,1.09,8.82,4.04c2.07,2.2,3.14,4.64,3.01,6.87c-0.15,2.74-1.13,5.61-1.93,7.54
		l-1.4,3.39l3.61-0.66l15.91-2.91c6.87,0.01,9.27,0.44,9.3,7.75l-0.03,0.26l-2.87,15.38l-0.68,3.66l3.43-1.45
		c1.9-0.8,4.75-1.76,7.53-1.76c5.93,0,10.95,5.5,10.95,12.01c0,3.91-0.82,6.08-3.26,8.63c-2.24,2.33-5.14,3.78-7.54,3.78
		c-1.96-0.03-4.67-0.72-7.62-1.95l-3.46-1.43l0.73,3.67l2.84,14.27c-0.12,5.23-4.29,9.46-9.4,9.52l-0.21-0.02L54.1,88.76l2.28-7.67
		l0.09-0.3l-0.01-0.31c-0.15-6.7-5.47-11.94-12.09-11.94c-6.56,0-11.45,5.07-11.62,12.05l-0.01,0.33l0.1,0.31l2.35,7.54l-23.59,3.87
		c-5.23-0.08-9.46-4.33-9.52-9.56l0.03-0.27l4.52-16.92l7.54,2.35l0.31,0.1l0.33-0.01c6.61-0.14,11.41-5.25,11.41-12.16
		c0-6.83-5.55-12.73-12.12-12.89l-0.35-0.01l-0.33,0.11L5.9,45.84L2.06,29.57c0.12-5.09,4.36-9.2,9.57-9.25l0.24,0.03l18.22,2.98
		l3.58,0.59l-1.41-3.34c-0.81-1.92-1.79-4.8-1.83-7.65c-0.04-2.38,1.13-4.9,3.29-7.1C36.51,2.96,38.69,2,42.35,2 M42.35,0
		c-4.18,0-6.87,1.16-10.07,4.42c-2.52,2.57-3.91,5.6-3.86,8.53c0.04,3.04,1,6.07,1.99,8.4l-18.27-2.99l-0.4-0.04
		c-6.43,0-11.68,5.14-11.68,11.48l4.4,18.64l9.58-3.16c5.47,0.13,10.17,5.09,10.17,10.89c0,5.87-4.05,10.05-9.46,10.16l-9.53-2.97
		L0.13,82.42l-0.07,0.54c0,6.43,5.25,11.68,11.68,11.68l26.03-4.26l-3.04-9.74c0.13-5.47,3.73-10.1,9.62-10.1
		c5.38,0,9.96,4.18,10.09,9.99l-2.88,9.69l18.17,4.35l0.45,0.04c6.34,0,11.48-5.25,11.5-11.7l-2.88-14.48
		c2.48,1.03,5.65,2.05,8.35,2.1c3.01,0,6.39-1.65,9.02-4.4c2.92-3.06,3.82-5.84,3.82-10.02c0-7.81-6.05-14.01-12.95-14.01
		c-2.97,0-5.98,0.94-8.31,1.92l2.88-15.47l0.04-0.45c0-9.38-4.35-9.85-11.48-9.85L54.1,21.21c0.96-2.32,1.92-5.31,2.08-8.19
		c0.16-2.79-1.12-5.76-3.55-8.35C49.48,1.32,46.55,0,42.35,0L42.35,0z"></path>
</g>
</svg>