<svg xmlns="http://www.w3.org/2000/svg" viewBox="0 0 56 56" focusable="false"><g fill-rule="evenodd"><path d="M45 15a4 4 0 10-4-4 4 4 0 004 4m-28.34-1.22L28.93 1.51A5.17 5.17 0 0132.6 0h18.2A5.18 5.18 0 0156 5.16V23.4a5.1 5.1 0 01-1.53 3.67L42.21 39.33z" fill="#4285f4"></path><path d="M42.21 39.33L27.09 54.47A5.31 5.31 0 0123.4 56a5.23 5.23 0 01-3.67-1.53l-18.2-18.2A5.1 5.1 0 010 32.6a5.2 5.2 0 011.53-3.69l15.13-15.13z" fill="#34a853"></path><path d="M10.37 45.1l-8.84-8.83A5.1 5.1 0 010 32.6a5.2 5.2 0 011.53-3.69l15.13-15.13 12.51 12.51z" fill="#fbbc05"></path><path d="M54.2 1.26A5.16 5.16 0 0050.8 0H32.6a5.17 5.17 0 00-3.67 1.51L16.66 13.78l12.51 12.51 12.75-12.74a4 4 0 015.63-5.63z" fill="#ea4335"></path><path d="M29.17 19.58A8.13 8.13 0 1121 27.71a8.13 8.13 0 018.13-8.13" fill="#4285f4"></path><path d="M40.24 25.32H29.43V30h6.22c-.58 2.95-3 4.64-6.22 4.64a7 7 0 01-6.85-7.09 7 7 0 016.85-7.09A6.59 6.59 0 0133.7 22l3.37-3.49a11.33 11.33 0 00-7.64-3 11.78 11.78 0 00-11.6 12 11.78 11.78 0 0011.6 12c5.8 0 11.07-4.36 11.07-12a10.81 10.81 0 00-.26-2.19z" fill="#fff"></path><path d="M40.24 25.32H29.43V30h6.22c-.58 2.95-3 4.64-6.22 4.64a7 7 0 01-6.85-7.09 7 7 0 016.85-7.09A6.59 6.59 0 0133.7 22l3.37-3.49a11.33 11.33 0 00-7.64-3 11.78 11.78 0 00-11.6 12 11.78 11.78 0 0011.6 12c5.8 0 11.07-4.36 11.07-12a10.81 10.81 0 00-.26-2.19z" fill="#fff"></path></g></svg>