<svg xmlns="http://www.w3.org/2000/svg" viewBox="0 0 56 56" focusable="false"><path fill-rule="evenodd" clip-rule="evenodd" fill="#222" d="M47.08 26.66c-.74-.74-1.94-.74-2.69 0L26.66 44.33c-2.52 2.51-6.62 2.51-9.14 0-.74-.74-1.94-.74-2.69 0-.74.74-.74 1.94 0 2.68 4 3.99 10.51 3.99 14.51 0l17.74-17.67c.75-.74.75-1.94 0-2.68"></path><path fill-rule="evenodd" clip-rule="evenodd" fill="#222" d="M53 20.77c-4-3.99-10.51-3.98-14.52 0L20.74 38.44c-.74.74-.74 1.94 0 2.68.74.74 1.94.74 2.69 0l17.74-17.67c2.52-2.51 6.62-2.51 9.14 0a6.422 6.422 0 0 1 0 9.1L36.04 46.77c-.74.74-.74 1.94 0 2.68.74.74 1.94.74 2.69 0L53 35.23c4-3.99 4-10.47 0-14.46M41.17 8.99c-4-3.99-10.51-3.98-14.52 0L8.92 26.66c-.74.74-.74 1.94 0 2.68.74.74 1.94.74 2.69 0l17.74-17.67c2.52-2.51 6.62-2.51 9.14 0 .74.74 1.95.74 2.69 0 .73-.74.73-1.94-.01-2.68"></path><path fill-rule="evenodd" clip-rule="evenodd" fill="#222" d="M35.26 14.88c-.74-.74-1.94-.74-2.69 0L14.83 32.55c-2.52 2.51-6.62 2.51-9.14 0-2.52-2.51-2.52-6.6 0-9.1L19.96 9.23c.74-.74.74-1.94 0-2.68-.74-.74-1.94-.74-2.69 0L3 20.77c-4 3.99-4 10.47 0 14.46s10.51 3.98 14.51 0l17.74-17.67c.75-.74.75-1.94.01-2.68"></path></svg>