<svg xmlns="http://www.w3.org/2000/svg" width='50' xmlns:xlink="http://www.w3.org/1999/xlink" viewBox="0 0 56 56" focusable="false"><defs><path id="a" d="M27.96 50.1l-6.01 2.7-4.18-4.91-6.64-.05-1.53-6.15-5.97-2.78 1.44-6.17-4.11-4.97 4.11-4.97-1.44-6.17 5.97-2.78 1.53-6.15 6.64-.04 4.18-4.92 6.01 2.7 6.01-2.7 4.18 4.92 6.64.04 1.53 6.15 5.97 2.78-1.44 6.17 4.11 4.97-4.11 4.97 1.44 6.17-5.97 2.78-1.53 6.15-6.64.05-4.18 4.91z"></path></defs><clipPath id="b"><use xlink:href="#a" overflow="visible"></use></clipPath><path clip-path="url(#b)" fill="#ECF5FE" d="M-3.47-1.68h62.85v58.91H-3.47z"></path><path fill="#7E94AA" d="M34.24 54.02l-6.28-2.82-6.28 2.82-4.37-5.13-6.96-.05-1.6-6.44-6.27-2.92L3.98 33l-4.32-5.22 4.32-5.22-1.5-6.48 6.27-2.92 1.6-6.44 6.96-.05 4.37-5.13 6.28 2.82 6.28-2.82 4.37 5.13 6.96.05 1.6 6.44 6.27 2.92-1.5 6.48 4.32 5.22L51.94 33l1.5 6.48-6.27 2.92-1.6 6.44-6.96.05-4.37 5.13zm-22.33-7.17l6.33.04 3.99 4.69L27.96 49l5.73 2.58 3.99-4.69 6.33-.04 1.45-5.86 5.67-2.64-1.36-5.86 3.9-4.71-3.9-4.71 1.36-5.86-5.67-2.64-1.45-5.87-6.33-.04-3.99-4.69-5.73 2.58-5.73-2.58-3.99 4.69-6.33.04-1.45 5.86-5.67 2.64 1.36 5.86-3.89 4.71 3.89 4.71-1.36 5.86 5.66 2.64 1.46 5.87z"></path><path fill="#7E94AA" d="M25.15 35.82l-8.03-7.08 1.32-1.5 6.66 5.87 13.01-12.26 1.37 1.45z"></path></svg>