<svg xmlns="http://www.w3.org/2000/svg" width='40' viewBox="0 0 28 28" focusable="false"><path fill="#CBE87C" d="M24.14 12.77c-1.51 0-3.12 1.08-3.12 1.08l1.04-5.28c0-2.12-.72-2.16-2.53-2.16l-5.02 1.08s.96-1.71 1.04-3.24C15.64 2.71 13.75 1 11.94 1S8.26 2.64 8.28 4.24s1.04 3.24 1.04 3.24L3.58 6.41C2.15 6.41 1 7.56 1 9.04l1.04 4.8 2.08-.67c1.92 0 3.12 1.34 3.12 3.36 0 2.02-1 3.2-2.92 3.2l-2.08-.67L1 24.14c0 1.48 1.15 2.68 2.58 2.68l6.29-1.08-.64-2.16c0-2 1.35-3.24 3.27-3.24s2.87 1.24 2.87 3.24l-.84 2.16 5.02 1.08c1.41 0 2.53-1.2 2.53-2.68l-1.04-4.89s1.85 1.06 3.12 1.08 3.12-1.52 3.12-3.81c-.02-1.87-1.63-3.75-3.14-3.75z"></path><path fill="#7E94AA" d="M19.36 27.83l-.21-.02-6.11-1.33 1.19-3.07c-.06-1.85-1.08-2.06-1.85-2.06-1.36 0-2.2.79-2.25 2.11l.91 3.09-7.5 1.29C1.59 27.83 0 26.17 0 24.14l.03-.24 1.48-6.13 2.92.95c.85-.03 1.75-.36 1.75-2.2 0-1.45-.71-2.3-1.95-2.36l-2.94.96L0 9.04c0-2 1.59-3.63 3.54-3.63l.18.02 3.82.73c-.19-.58-.33-1.23-.34-1.9 0-.96.43-1.93 1.22-2.74C9.35.57 10.62 0 11.82 0c1.23 0 2.51.6 3.45 1.59.77.82 1.17 1.78 1.12 2.71-.03.62-.18 1.25-.36 1.81l3.32-.7c1.72 0 3.49 0 3.49 3.16l-.02.19-.65 3.32c.53-.18 1.13-.32 1.73-.32 2.05 0 4.08 2.36 4.09 4.76 0 1.38-.53 2.66-1.5 3.62-.77.76-1.7 1.19-2.55 1.19h-.05c-.54-.01-1.14-.16-1.7-.36l.64 3.16c.02 2.04-1.54 3.7-3.47 3.7zM1.98 24.25c.05.85.69 1.53 1.49 1.57l5.03-.87-.36-1.37c0-2.5 1.74-4.25 4.23-4.25 2.4 0 3.83 1.59 3.83 4.25v.19l-.48 1.24 3.72.81c.78-.05 1.38-.72 1.42-1.58l-1.47-6.96 1.92 1.11c.63.36 1.89.94 2.61.95.29 0 .74-.18 1.18-.62.34-.33.9-1.06.9-2.19-.01-1.39-1.21-2.76-2.11-2.76-.97 0-2.16.66-2.54.91l-1.98 1.33 1.47-7.53c-.01-.8-.14-.95-.14-.95-.13-.1-.82-.11-1.26-.11l-7.01 1.52L13.51 7c.01-.02.84-1.53.9-2.81.02-.36-.2-.81-.58-1.22-.55-.59-1.34-.97-2.01-.97-.67 0-1.44.35-1.99.92-.41.42-.65.9-.64 1.31.02 1.29.87 2.72.88 2.73l1.18 1.93-7.79-1.48c-.8.04-1.43.69-1.48 1.53l.77 3.61 1.32-.38c2.44 0 4.08 1.75 4.08 4.36 0 2.63-1.45 4.2-3.88 4.2l-.3-.05-1.05-.34-.94 3.91z"></path></svg>