<svg xmlns="http://www.w3.org/2000/svg" id="Layer_1" data-name="Layer 1" viewBox="0 0 1079.08 250.7" style="width: 120px;"><defs><style>.cls-1,.cls-2{fill:#e81c1c;fill-rule:evenodd}.cls-2{fill:#fff}</style></defs><path class="cls-1" d="M344 134.4l11.5 20.1a13.37 13.37 0 0 1 0 13.4L287 287.5l32.3 56.4a28.34 28.34 0 0 0 38.6 10.7 27.52 27.52 0 0 0 10.7-10.7l32.3-56.4-8.7-15.2-36.7 64a13.29 13.29 0 0 1-18.2 4.9 14.36 14.36 0 0 1-4.9-4.9l-27.9-48.8 63.6-111 11.5 20.1a13.37 13.37 0 0 1 0 13.4l-44.4 77.4 8.7 15.2 48.2-84.1 31.7 55.2a27.56 27.56 0 0 1 0 27.5l-32.2 56.1c-4.9 8.6-20.1 27.8-47.8 27.8s-42.7-19.2-47.7-27.8L264 301.2a27.56 27.56 0 0 1 0-27.5l80-139.3" transform="translate(-260.33 -134.4)"/><path class="cls-2" d="M599.9 231c-25.8.1-46.6 18.2-46.6 47.1s18 46.8 46.8 46.8c11.4 0 23.4 5.9 23.4 18.7s-10.3 20-23.4 20-24.2-7.9-24.2-20h-22.7c0 25.1 20 41.5 46.8 41.5s46.3-15.9 46.3-41.5c0-11.9-3.8-23-19.1-30.7 15.2-7 19.5-23.2 19.5-34.7 0-29.1-21-47.2-46.8-47.2zm.1 74.9c-13.3 0-24.2-11.5-24.2-27.7s11-28.2 24.2-28.2 24 12.1 24 28.1-10.8 27.7-24 27.8zm556.4-17.9c2.6 11 12.6 20.6 28.7 20.6 8.4 0 19.5-4.1 24.7-9.6l14.6 14.4c-9.7 10.1-25.7 15-39.7 15-28.8 0-49.7-19.3-49.7-48.9 0-28.2 21.6-48.6 48.1-48.7 28-.1 51.2 19.2 48.7 57l-75.4.2zm53.7-17.5c-2.6-11-13.6-20.5-26.7-20.5a28.38 28.38 0 0 0-27 20.5zM1051 288c2.6 11 12.6 20.6 28.7 20.6 8.4 0 19.5-4.1 24.7-9.6l14.6 14.4c-9.8 10.1-25.7 15-39.7 15-28.8 0-49.7-19.3-49.7-48.9 0-28.2 21.6-48.6 48.1-48.7 28-.1 51.2 19.2 48.7 57l-75.4.2zm53.7-17.5c-2.6-11-13.6-20.5-26.7-20.5a28.38 28.38 0 0 0-27 20.5zm-392-39.6c-10.4 0-20.5 3.2-28.7 13.9v-52.5h-22.7v133.9H684v-47.3c0-13.9 9.3-25.3 22.7-25.3 12.1 0 20.9 7.1 20.9 24v48.6h22.7V276c.1-27.3-11.5-45.1-37.6-45.1zm261.3.1c-10.4 0-22.7 4.5-29.8 14.8l-.7-12.7h-22v134l22.7-2.5v-49.4c6.5 10.1 20.7 13.3 30.3 13.3 29.5 0 46.6-22.1 46.6-49.1 0-27.2-18.8-48.4-47.1-48.4zm-1.7 77.7c-15.5 0-26.1-14.3-26.1-28.7s9.7-30 26.1-30 26.1 15.5 26.1 30-10.6 28.7-26.1 28.7zm314.5 19.8c10.4 0 22.7-4.5 29.8-14.8l.8 12.4h22V192.5h-22.7v51.8c-6.5-10.1-20.9-13.1-30.6-13.1-29.4 0-46.4 21.9-46.4 49s18.8 48.4 47.1 48.3zm1.7-77.7c15.5 0 26.1 14.3 26.1 28.8s-9.7 30-26.1 30-26.1-15.5-26.1-30 10.7-28.8 26.1-28.8zm-482.8 59.6c-2.9 0-5-.9-6.4-2.8s-2.1-4.8-2.1-8.8v-45.7h18.3l2.1-19.9h-20.2v-25.5l-23 2.5v23.1h-17.3v19.9h17.3l.1 46.2c0 9.6 2.2 16.8 6.7 21.7s11.1 7.4 19.8 7.5a41.75 41.75 0 0 0 11.6-1.7 36.42 36.42 0 0 0 10.4-4.8l-7.8-14.6a19.28 19.28 0 0 1-9.5 2.9zm93.7-34.1c-9.2-5.8-20.2-6.5-30.8-7.2-6.2-.4-15.9-1.9-15.9-10 0-5.8 6-9.2 16.9-9.2 8.9 0 16.4 2.1 23 8.3l12.8-15c-10.8-9.4-21.7-12.2-36.2-12.2-16.9 0-39.2 7.5-39.2 28.9a25.81 25.81 0 0 0 12.2 21.8c8.6 5.4 19.6 6.1 29.4 7.2 6.5.7 17.1 2.4 15.4 11.4-1.2 6.4-8.7 8.2-14.2 8.4a59.12 59.12 0 0 1-17.3-1.6c-6-1.6-11-4.6-16.2-8l-11.5 14.8 1.4 1.1c14.9 12.3 35.6 16.3 54.3 12.1 14.1-3.2 26.2-13.5 26.2-29 .1-8.7-2.9-17.1-10.3-21.8zm-381.9 49.8h22.7v-92.8h-22.7v92.8zm-2-122.6a13.32 13.32 0 1 1 3.9 9.5 14.09 14.09 0 0 1-3.9-9.5zm-16.7 122.7V192.3h-22.5v133.9z" transform="translate(-260.33 -134.4)"/></svg>