<svg xmlns="http://www.w3.org/2000/svg" id="Layer_1" data-name="Layer 1" viewBox="0 0 209.08 250.7" style="height: 34px;"><defs><style>.cls-1,.cls-2{fill:#e81c1c;fill-rule:evenodd}.cls-2{fill:#fff}</style></defs>
<path class="cls-1" d="M344 134.4l11.5 20.1a13.37 13.37 0 0 1 0 13.4L287 287.5l32.3 56.4a28.34 28.34 0 0 0 38.6 10.7 27.52 27.52 0 0 0 10.7-10.7l32.3-56.4-8.7-15.2-36.7 64a13.29 13.29 0 0 1-18.2 4.9 14.36 14.36 0 0 1-4.9-4.9l-27.9-48.8 63.6-111 11.5 20.1a13.37 13.37 0 0 1 0 13.4l-44.4 77.4 8.7 15.2 48.2-84.1 31.7 55.2a27.56 27.56 0 0 1 0 27.5l-32.2 56.1c-4.9 8.6-20.1 27.8-47.8 27.8s-42.7-19.2-47.7-27.8L264 301.2a27.56 27.56 0 0 1 0-27.5l80-139.3" transform="translate(-260.33 -134.4)"/>
</svg>

