<svg xmlns="http://www.w3.org/2000/svg" width='40' viewBox="0 0 40 26"><path fill="#FFF" d="M39 22h-3l-4 3-2-3H13l-3 3-3-3H2V0h30v5l3 9 4 1z"></path><path fill="#457BA4" d="M39 14.02L35 13 33 2V0H1v23h5.65c.4 1.66 1.89 3 3.67 3s3.27-1.35 3.68-3h15.45c.39 1.66 1.87 3 3.65 3 1.78 0 3.27-1.35 3.67-3H39v-8.98zM10.32 24c-.98 0-1.78-.8-1.78-1.78s.8-1.77 1.78-1.77 1.78.8 1.78 1.78S11.3 24 10.32 24zM27 12h-6V5h6v7zm-6 1h6v8.09h-6V13zm12.12 11c-.98 0-1.78-.8-1.78-1.78s.8-1.77 1.78-1.77 1.78.8 1.78 1.78S34.1 24 33.12 24zm4.89-2.89h-1.28a3.769 3.769 0 00-3.61-2.67c-1.7 0-3.13 1.12-3.61 2.67H28V4h-8v17.11h-6.07c-.47-1.55-1.91-2.67-3.61-2.67s-3.13 1.12-3.61 2.67H2V.95h30v1.13l2.14 11.46 3.87 1.33v6.24z"></path><path fill="#97CEFA" d="M2 6h17v6H2zm19-1h6v7h-6zm8-1v10h3L30 4z"></path></svg>