<svg xmlns="http://www.w3.org/2000/svg" width='40' viewBox="0 0 40 26"><circle fill-rule="evenodd" clip-rule="evenodd" fill="#EDE8A2" cx="25.46" cy="10.5" r="3.46"></circle><circle fill="none" cx="25.46" cy="10.5" r="3.46"></circle><path fill="#A4E1B4" d="M38.41.58H18.52c-.56 0-1.02.46-1.02 1.02v11.81c0 .56.46 1.02 1.02 1.02h19.89c.56 0 1.02-.46 1.02-1.02V1.59c-.01-.56-.46-1.01-1.02-1.01z"></path><path fill="#76BB8B" d="M37.37 5.02c-1.31 0-2.38-1.11-2.38-2.48 0-.22.03-.42.08-.62H21.85c.05.2.08.41.08.62 0 1.37-1.06 2.48-2.38 2.48-.21 0-.4-.04-.59-.09v5.14c.19-.05.39-.09.59-.09 1.31 0 2.38 1.11 2.38 2.48 0 .22-.03.42-.08.62h13.23c-.05-.2-.08-.41-.08-.62 0-1.37 1.06-2.48 2.38-2.48.21 0 .4.04.59.09V4.93c-.2.05-.4.09-.6.09z"></path><circle fill-rule="evenodd" clip-rule="evenodd" fill="#EDE8A2" cx="28.46" cy="7.5" r="3.46"></circle><circle fill="none" cx="28.46" cy="7.5" r="3.46"></circle><path fill="#457BA4" d="M37.63 1c.76 0 1.37.61 1.37 1.37v10.26c0 .75-.61 1.37-1.37 1.37H19.37c-.76 0-1.37-.61-1.37-1.37V2.37c0-.76.61-1.37 1.37-1.37h18.26m0-1H19.37C18.06 0 17 1.06 17 2.37v10.26c0 1.31 1.06 2.37 2.37 2.37h18.26c1.31 0 2.37-1.06 2.37-2.37V2.37C40 1.06 38.94 0 37.63 0zM2 18h2v6H2zm4 0h2v6H6zm4 0h2v6h-2zM0 16l7-3 7 3v1H0zm0 8h14v2H0zm3-12c-.55 0-1-.45-1-1v-1c0-.55.45-1 1-1s1 .45 1 1v1c0 .55-.45 1-1 1zm0-4c-.55 0-1-.45-1-1v-.65c0-.15.01-.3.02-.45.06-.55.57-.94 1.1-.9a1 1 0 01.89 1.1C4 6.18 4 6.26 4 6.35V7c0 .55-.45 1-1 1zm1.5-3.49c-.33 0-.64-.16-.84-.45-.3-.46-.17-1.08.29-1.39.37-.25.78-.43 1.2-.54.54-.13 1.09.18 1.23.72.14.53-.18 1.08-.71 1.22-.22.06-.43.15-.62.27-.17.12-.36.17-.55.17zM13.4 4h-1c-.55 0-1-.45-1-1s.45-1 1-1h1c.55 0 1 .45 1 1s-.44 1-1 1zm-4 0h-1c-.55 0-1-.45-1-1s.45-1 1-1h1c.55 0 1 .45 1 1s-.44 1-1 1zm21.2 20h-1c-.55 0-1-.45-1-1s.45-1 1-1h1c.55 0 1 .45 1 1s-.45 1-1 1zm-4 0h-1c-.55 0-1-.45-1-1s.45-1 1-1h1c.55 0 1 .45 1 1s-.45 1-1 1zm-4 0h-1c-.55 0-1-.45-1-1s.45-1 1-1h1c.55 0 1 .45 1 1s-.45 1-1 1zm-4 0h-1c-.55 0-1-.45-1-1s.45-1 1-1h1c.55 0 1 .45 1 1s-.45 1-1 1zm14.9-.51c-.33 0-.64-.16-.84-.45a.99.99 0 01.29-1.38c.19-.13.37-.28.51-.46.35-.43.98-.5 1.41-.14a1 1 0 01.14 1.41c-.28.34-.6.63-.96.87-.17.1-.36.15-.55.15zM35 20c-.55 0-1-.45-1-1v-1c0-.55.45-1 1-1s1 .45 1 1v1c0 .55-.45 1-1 1z"></path></svg>