<svg xmlns="http://www.w3.org/2000/svg" width='40' viewBox="0 0 40 26"><path fill="#FFF" d="M38.84 1H1.16c-.09 0-.16.07-.16.16v23.68c0 .09.07.16.16.16h37.68c.09 0 .16-.07.16-.16V1.16c0-.09-.07-.16-.16-.16z"></path><path fill="#457BA4" d="M37.63 1c.76 0 1.37.61 1.37 1.37v21.26c0 .75-.61 1.37-1.37 1.37H2.37C1.61 25 1 24.39 1 23.63V2.37C1 1.61 1.61 1 2.37 1h35.26m0-1H2.37C1.06 0 0 1.06 0 2.37v21.26C0 24.94 1.06 26 2.37 26h35.26c1.31 0 2.37-1.06 2.37-2.37V2.37C40 1.06 38.94 0 37.63 0z"></path><path fill="#457BA4" d="M19.04 10H5.96C5.43 10 5 9.57 5 9.04s.43-.96.96-1.04h13.08c.53.08.96.51.96 1.04s-.43.96-.96.96zM9.81 7H5.96a.96.96 0 010-1.92L9.81 5c.53 0 .96.51.96 1.04s-.43.96-.96.96z"></path><path fill="#97CEFA" d="M34.04 17H5.96c-.53 0-.96-.43-.96-.96s.43-.96.96-1.04h28.08c.53.08.96.51.96 1.04s-.43.96-.96.96z"></path><path fill="#457BA4" d="M17 21H5.5c-.28 0-.5-.22-.5-.5s.22-.5.5-.5H17c.28 0 .5.22.5.5s-.22.5-.5.5zm17.5 0h-4c-.28 0-.5-.22-.5-.5s.22-.5.5-.5h4c.28 0 .5.22.5.5s-.22.5-.5.5zm-7 0h-4c-.28 0-.5-.22-.5-.5s.22-.5.5-.5h4c.28 0 .5.22.5.5s-.22.5-.5.5zm-14.34-2H5.34c-.19 0-.34-.22-.34-.5s.15-.5.34-.5h7.82c.19 0 .34.22.34.5s-.15.5-.34.5zm21.34 0h-4c-.28 0-.5-.22-.5-.5s.22-.5.5-.5h4c.28 0 .5.22.5.5s-.22.5-.5.5zm-7 0h-4c-.28 0-.5-.22-.5-.5s.22-.5.5-.5h4c.28 0 .5.22.5.5s-.22.5-.5.5z"></path></svg>