<svg xmlns="http://www.w3.org/2000/svg" width='50' viewBox="0 0 56 56" focusable="false"><title>tips_icon</title><path d="M51,32H47a1,1,0,0,1,0-2h4a3,3,0,0,0,3-2.76A3,3,0,1,1,52,22a4.12,4.12,0,0,1,.86.09A3,3,0,0,0,50,20a1,1,0,0,1,0-2,5,5,0,0,1,5,5v.36A4,4,0,0,1,56,26v1A5,5,0,0,1,51,32Zm1-8a1,1,0,1,0,1,1v-.73A2,2,0,0,0,52,24Z" style="fill:#7d93aa"></path><circle cx="27" cy="10.5" r="9.5" style="fill:#fbd888"></circle><path d="M27,21A10.5,10.5,0,1,1,37.5,10.5,10.51,10.51,0,0,1,27,21ZM27,2a8.5,8.5,0,1,0,8.5,8.5A8.51,8.51,0,0,0,27,2Z" style="fill:#7d93aa"></path><circle cx="27" cy="10.5" r="5.5" style="fill:#fbd888"></circle><path d="M27,17a6.5,6.5,0,1,1,6.5-6.5A6.51,6.51,0,0,1,27,17ZM27,6a4.5,4.5,0,1,0,4.5,4.5A4.51,4.51,0,0,0,27,6Z" style="fill:#7d93aa"></path><path d="M9.89,22.25A23.1,23.1,0,0,0,5,31L1,34v6l10,7,4,8h7V50h0a20.7,20.7,0,0,0,9,0h0v5h7l5-9s6-4,6-13S42,15,27,15a23.54,23.54,0,0,0-11.35,2.67,8.6,8.6,0,0,0-.94-.69A7.08,7.08,0,0,0,6,18H6l7,7" style="fill:#baddfa"></path><path d="M38,56H31a1,1,0,0,1-1-1V51.2a21.09,21.09,0,0,1-7,0V55a1,1,0,0,1-1,1H15a1,1,0,0,1-.89-.55l-3.89-7.78L.43,40.82A1,1,0,0,1,0,40V34a1,1,0,0,1,.4-.8l3.73-2.8a24.48,24.48,0,0,1,4.56-8.29l-3.4-3.4a1,1,0,0,1,0-1.42,8,8,0,0,1,10-1.16c.18.11.36.24.52.36A24.9,24.9,0,0,1,27,14c7.18,0,13.17,2,17.31,5.89A17.74,17.74,0,0,1,50,33c0,8.57-5.11,12.84-6.23,13.68l-4.9,8.81A1,1,0,0,1,38,56Zm-6-2h5.41l4.72-8.49a.94.94,0,0,1,.32-.34C42.67,45,48,41.32,48,33S41.51,16,27,16a22.7,22.7,0,0,0-10.88,2.55A1,1,0,0,1,15,18.43a8.22,8.22,0,0,0-.8-.6,6,6,0,0,0-6.72.23l6.24,6.23a1,1,0,0,1-1.42,1.42l-2.18-2.18A22.35,22.35,0,0,0,6,31.24a1,1,0,0,1-.37.56L2,34.5v5l9.57,6.7a1,1,0,0,1,.32.37L15.62,54H21V50a1,1,0,0,1,.37-.77A1,1,0,0,1,22.2,49a19.5,19.5,0,0,0,8.6,0,1,1,0,0,1,.83.21A1,1,0,0,1,32,50Z" style="fill:#7d93aa"></path><polyline points="10 31 12 29 14 31" style="fill:#baddfa"></polyline><path d="M14,32a1,1,0,0,1-.71-.29L12,30.41l-1.29,1.3a1,1,0,0,1-1.42-1.42l2-2a1,1,0,0,1,1.42,0l2,2a1,1,0,0,1,0,1.42A1,1,0,0,1,14,32Z" style="fill:#7d93aa"></path></svg>