<svg xmlns="http://www.w3.org/2000/svg" width="22" height="22" viewBox="0 0 41 48" focusable="false"><path fill="#C13E3E" fill-rule="evenodd" d="M8.59 46.524c-.083-2.06-.015-4.528.512-6.76.567-2.397 3.79-16.055 3.79-16.055s-.943-1.88-.943-4.657c0-4.362 2.532-7.623 5.682-7.623 2.677 0 3.972 2.01 3.972 4.42 0 2.69-1.72 6.72-2.6 10.45-.738 3.123 1.57 5.67 4.644 5.67 5.58 0 9.338-7.163 9.338-15.657 0-6.453-4.347-11.283-12.253-11.283-8.934 0-14.498 6.66-14.498 14.102 0 2.567.757 4.377 1.94 5.778.548.644.623.9.423 1.64-.137.545-.46 1.847-.597 2.363-.196.75-.798 1.014-1.474.736C2.41 27.972.496 23.465.496 18.4.496 10.034 7.55 0 21.546 0c11.243 0 18.65 8.138 18.65 16.873 0 11.553-6.43 20.185-15.897 20.185-3.182 0-6.174-1.72-7.194-3.668 0 0-1.713 6.787-2.072 8.094-.626 2.267-1.848 4.54-2.964 6.31-1.31.62-3.472-.264-3.48-1.27z"></path></svg>