<svg xmlns="http://www.w3.org/2000/svg" width='50' viewBox="0 0 56 56" focusable="false"><path fill="#FFFC00" d="M46.4 1A8.6 8.6 0 0155 9.6v36.8a8.6 8.6 0 01-8.6 8.6H9.6A8.6 8.6 0 011 46.4V9.6A8.6 8.6 0 019.6 1h36.8z"></path><path fill="#FFF" d="M28.2 46.57c-.1 0-.2 0-.3-.01-.06 0-.13.01-.2.01-2.34 0-3.85-1.06-5.3-2.09-1-.71-1.95-1.38-3.07-1.57-.54-.09-1.09-.14-1.61-.14-.94 0-1.69.15-2.23.25-.33.06-.62.12-.83.12-.23 0-.47-.05-.58-.41-.09-.32-.16-.62-.22-.92-.17-.76-.28-1.23-.6-1.28-3.72-.57-4.78-1.36-5.02-1.91-.03-.08-.05-.16-.06-.24-.01-.21.14-.4.35-.44 5.71-.94 8.28-6.78 8.38-7.03 0-.01.01-.01.01-.02.35-.71.42-1.32.2-1.83-.39-.92-1.67-1.33-2.52-1.6-.21-.07-.4-.13-.56-.19-1.69-.67-1.83-1.35-1.76-1.7.11-.6.91-1.01 1.55-1.01.18 0 .33.03.46.09.76.36 1.44.54 2.04.54.82 0 1.17-.34 1.22-.39-.02-.39-.05-.79-.07-1.21-.17-2.7-.38-6.06.47-7.97 2.56-5.74 7.99-6.19 9.6-6.19l.7-.01h.09c1.61 0 7.05.45 9.61 6.19.85 1.92.64 5.28.47 7.98l-.01.12c-.02.38-.05.74-.07 1.09.04.04.37.36 1.11.39.56-.02 1.21-.2 1.92-.53.21-.1.44-.12.6-.12.24 0 .48.05.69.13h.01c.57.2.95.61.96 1.03.01.4-.29.99-1.78 1.58-.15.06-.35.12-.56.19-.85.27-2.13.67-2.52 1.6-.21.5-.15 1.12.2 1.83 0 .01.01.01.01.02.11.25 2.67 6.09 8.38 7.03.21.03.36.22.35.44 0 .08-.02.16-.06.24-.24.55-1.3 1.33-5.02 1.91-.3.05-.42.44-.6 1.27-.07.3-.13.6-.22.91-.08.27-.25.4-.53.4h-.05c-.2 0-.48-.04-.83-.1-.63-.12-1.34-.24-2.23-.24-.52 0-1.07.05-1.61.14-1.12.19-2.06.85-3.07 1.56-1.44 1.02-2.95 2.09-5.29 2.09z"></path><path fill="#030303" d="M28.34 9.85c1.52 0 6.76.41 9.23 5.95.81 1.82.61 5.13.44 7.78-.03.42-.05.83-.07 1.22l-.01.17.11.12c.04.05.47.49 1.41.53h.04c.62-.02 1.32-.22 2.08-.57.11-.05.26-.08.42-.08.18 0 .37.03.53.1l.02.01c.4.14.68.4.69.64 0 .14-.1.62-1.51 1.18-.14.05-.32.11-.53.18-.92.29-2.31.73-2.78 1.83-.26.62-.19 1.35.21 2.18.17.39 2.79 6.3 8.7 7.28 0 .03-.01.06-.02.09-.1.24-.74 1.05-4.7 1.66-.62.1-.77.79-.95 1.6-.06.29-.13.58-.22.88-.03.09-.03.1-.13.1h-.05c-.18 0-.44-.04-.75-.1-.56-.11-1.33-.24-2.31-.24-.55 0-1.11.05-1.68.14-1.21.2-2.2.9-3.24 1.64-1.4.99-2.85 2.02-5.06 2.02-.1 0-.19 0-.29-.01h-.05c-.05 0-.11.01-.16.01-2.21 0-3.66-1.02-5.06-2.01-1.04-.74-2.03-1.44-3.24-1.64-.57-.09-1.13-.14-1.68-.14-.98 0-1.75.15-2.31.26-.31.06-.58.11-.75.11-.14 0-.15-.01-.18-.11-.09-.3-.15-.6-.22-.89-.18-.81-.33-1.51-.95-1.6-3.96-.61-4.6-1.43-4.7-1.66-.02-.04-.02-.07-.02-.1 5.91-.97 8.53-6.89 8.7-7.28.41-.82.48-1.56.21-2.18-.47-1.1-1.86-1.54-2.78-1.83-.21-.07-.39-.12-.53-.18-1.19-.47-1.56-.95-1.51-1.23.06-.33.64-.67 1.14-.67.11 0 .21.02.28.05.82.38 1.56.58 2.21.58 1.03 0 1.48-.48 1.53-.53l.11-.12-.01-.17c-.02-.39-.05-.8-.07-1.22-.17-2.65-.37-5.95.44-7.78 2.46-5.52 7.67-5.94 9.21-5.94l.71-.01c.04-.02.07-.02.1-.02m0-.83h-.1l-.7.01c-1.67 0-7.31.46-9.98 6.44-.9 2.01-.68 5.42-.51 8.17l.06.98c-.14.08-.39.17-.79.17-.53 0-1.15-.17-1.86-.5-.19-.09-.4-.13-.64-.13-.82 0-1.81.54-1.96 1.35-.11.58.15 1.43 2.02 2.17.17.07.37.13.59.2.77.25 1.94.62 2.26 1.36.16.39.1.88-.19 1.48-.01.01-.01.03-.02.04-.1.24-2.58 5.88-8.07 6.78-.42.07-.72.45-.7.87.01.13.04.25.09.38.41.96 2.15 1.67 5.31 2.16.11.14.22.65.28.96.07.3.13.62.23.95.1.32.34.71.98.71.26 0 .56-.06.91-.13.53-.1 1.25-.24 2.15-.24.5 0 1.02.04 1.54.13 1.02.17 1.89.78 2.89 1.49 1.44 1.02 3.07 2.17 5.55 2.17.07 0 .14 0 .2-.01.08 0 .18.01.3.01 2.48 0 4.11-1.15 5.54-2.17 1.01-.71 1.87-1.32 2.9-1.49.52-.09 1.04-.13 1.54-.13.86 0 1.54.11 2.15.23.38.07.69.11.91.11h.04c.47 0 .8-.25.93-.7.1-.32.16-.63.23-.94.07-.31.18-.81.28-.95 3.17-.49 4.9-1.2 5.31-2.16.05-.12.08-.25.09-.38.02-.43-.28-.8-.7-.87-5.49-.91-7.96-6.54-8.07-6.78-.01-.01-.01-.03-.02-.04-.29-.59-.36-1.09-.19-1.48.32-.75 1.48-1.12 2.26-1.36.22-.07.42-.13.59-.2 1.37-.54 2.06-1.2 2.04-1.97-.01-.6-.48-1.14-1.23-1.41-.25-.1-.55-.16-.84-.16-.2 0-.5.03-.77.16-.65.31-1.24.47-1.74.49-.33-.02-.55-.1-.68-.17.02-.28.03-.56.05-.86l.01-.12c.17-2.74.39-6.16-.51-8.17-2.63-5.99-8.29-6.45-9.96-6.45z"></path></svg>