
<svg xmlns="http://www.w3.org/2000/svg" width='40' viewBox="0 0 40 26"><path fill="#e89234" d="M40 23H11V0h29z"></path><path fill="#fbd888" d="M22 0h7v8h-7z"></path><rect y="10" width="19" height="16" rx="1" fill="#dcf2ff"></rect><path d="M13.92 14.37a3.41 3.41 0 011.16.49 1.45 1.45 0 01.72 1.08c0 .37-.3.57-.7.59a.87.87 0 01-.93-.55 1.4 1.4 0 00-1.17-.42c-.69 0-1.24.27-1.24.75 0 .31.22.51.67.67.63.24 1.45.35 2.2.67A1.91 1.91 0 0116 19.48a2.26 2.26 0 01-2.1 2.18v.61a.79.79 0 01-.84.73.8.8 0 01-.75-.61v-.68a3.62 3.62 0 01-1.74-.71 1.43 1.43 0 01-.57-1 .7.7 0 01.74-.66 1.28 1.28 0 011 .63 1.55 1.55 0 001.3.53c.77 0 1.4-.34 1.4-.94a.81.81 0 00-.49-.7 23.63 23.63 0 00-2.3-.73 1.82 1.82 0 01-1.4-1.73c0-1.17.95-1.83 2.1-2v-.68a.79.79 0 01.8-.67.76.76 0 01.79.67zM3 15l6 2.25v1.5L3 21v-1.5L7 18l-4-1.5V15z" fill="#457ba4"></path></svg>