<svg xmlns="http://www.w3.org/2000/svg" width='40' viewBox="0 0 40 26"><path d="M1 22h5v3a1 1 0 01-1 1H2a1 1 0 01-1-1v-3zm16 0h5v3a1 1 0 01-1 1h-3a1 1 0 01-1-1v-3z" fill="#457ba4"></path><path d="M21 13H2L.3 14.7a1 1 0 00-.3.7V22a1 1 0 001 1h21a1 1 0 001-1v-6.6a1 1 0 00-.3-.7z" fill="#76bb8b"></path><path d="M2.3 13.5l2-6a1.5 1.5 0 011.4-1h11.6a1.5 1.5 0 011.4 1l2 6z" fill="#dcf2ff"></path><path d="M17.3 7a1 1 0 011 .7L20 13H3l1.8-5.3a1 1 0 011-.7h11.5m0-1H5.7a2 2 0 00-1.9 1.4L2 12.7 1.6 14h19.8l-.4-1.3-1.8-5.3a2 2 0 00-2-1.4z" fill="#76bb8b"></path><path d="M1 11h2v2.3H1a1 1 0 01-1-1V12a1 1 0 011-1zm21 2.2h-2V11h2a1 1 0 011 1v.2a1 1 0 01-1 1z" fill="#76bb8b"></path><path d="M3.3 17h1.4A1.3 1.3 0 016 18.3v1.4H3.3A1.3 1.3 0 012 18.3 1.3 1.3 0 013.3 17zm15 0h1.4a1.3 1.3 0 011.3 1.3 1.3 1.3 0 01-1.3 1.4H17v-1.4a1.3 1.3 0 011.3-1.3z" fill="#dcf2ff"></path><path fill="#7ebbe8" d="M40 26H29V0h11z"></path><path fill="#dcf2ff" d="M38 13h-9V2h9z"></path><circle cx="34" cy="6" r="2" fill="#457ba4"></circle><path d="M36 13h-5V9h3a2 2 0 012 2v2z" fill="#457ba4"></path><path fill="#e89234" d="M24 10h4v5h-4z"></path><rect x="25" y="9" width="8" height="2" rx="1" transform="rotate(-180 29 10)" fill="#457ba4"></rect></svg>