<svg xmlns="http://www.w3.org/2000/svg" width='40' viewBox="0 0 40 26"><path fill="#7ebbe8" d="M0 23h40v3H0z"></path><circle cx="32" cy="5" r="5" fill="#457ba4"></circle><path d="M32 11a7 7 0 017 7v5H25v-5a7 7 0 017-7z" fill="#457ba4"></path><path fill="#e89234" d="M32 23H19v-9h13z"></path><path fill="#fbd888" d="M24 14h3v3h-3z"></path><path d="M17 23H0a1 1 0 011-1h15a1 1 0 011 1zM6 17h5v5H6z" fill="#7ebbe8"></path><rect y="8" width="17" height="10" rx="1" fill="#7ebbe8"></rect><path fill="#dcf2ff" d="M1.5 9.5h14v7h-14z"></path><path d="M15 10v6H2v-6h13m1-1H1v8h15V9z" fill="#7ebbe8"></path></svg>