<svg xmlns="http://www.w3.org/2000/svg" width='50' viewBox="0 0 56 56" focusable="false"><path fill="#3C8BD9" d="M19.38 9.54c.52-1.37 1.24-2.63 2.31-3.65C25.94 1.74 32.99 2.78 35.88 8c2.17 3.96 4.48 7.83 6.72 11.74 3.74 6.5 7.52 13 11.22 19.53 3.11 5.46-.26 12.35-6.44 13.29-3.78.57-7.33-1.17-9.29-4.57-3.28-5.72-6.59-11.44-9.87-17.14-.07-.13-.15-.24-.24-.35-.35-.28-.5-.7-.72-1.07-1.46-2.57-2.96-5.11-4.41-7.66-.94-1.65-1.91-3.28-2.85-4.94a9.026 9.026 0 01-1.2-4.78c.08-.85.18-1.72.58-2.51"></path><path fill="#FABC04" d="M19.38 9.54c-.2.78-.37 1.57-.41 2.39-.07 1.83.39 3.52 1.3 5.11 2.39 4.11 4.78 8.24 7.15 12.37.22.37.39.74.61 1.09-1.3 2.26-2.61 4.5-3.94 6.76-1.83 3.15-3.65 6.33-5.5 9.48-.09 0-.11-.04-.13-.11-.02-.17.04-.33.09-.5.89-3.26.15-6.15-2.09-8.63-1.37-1.5-3.11-2.35-5.11-2.63-2.61-.37-4.91.3-6.98 1.94-.37.29-.61.7-1.04.92-.09 0-.13-.04-.15-.11 1.04-1.81 2.07-3.61 3.11-5.42 4.31-7.48 8.61-14.96 12.94-22.42.04-.08.1-.15.15-.24"></path><path fill="#34A852" d="M3.26 37.68c.41-.37.8-.76 1.24-1.11 5.28-4.18 13.22-1.15 14.38 5.46.28 1.59.13 3.11-.35 4.63-.02.13-.04.24-.09.37-.2.35-.37.72-.59 1.07-1.94 3.2-4.78 4.78-8.52 4.55-4.28-.3-7.66-3.52-8.24-7.79-.28-2.07.13-4 1.2-5.78.21-.4.47-.74.71-1.14.11-.08.07-.26.26-.26"></path></svg>