<svg width="56" height="56" viewBox="0 0 56 56" fill="none" xmlns="http://www.w3.org/2000/svg" focusable="false">
    <path d="M19.2825 24.265V22.5523C18.688 22.4582 18.0875 22.4066 17.4856 22.398C11.6586 22.3855 6.49975 26.1617 4.74989 31.7197C3.00002 37.2778 5.06554 43.3282 9.84846 46.6561C8.09455 44.779 6.92142 42.4344 6.47068 39.9052C6.01993 37.3761 6.31084 34.7706 7.30829 32.4031C8.30574 30.0357 9.96708 28.0076 12.0918 26.5635C14.2165 25.1195 16.7138 24.3213 19.2821 24.2652L19.2825 24.265Z" fill="#25F4EE"></path>
    <path d="M19.6056 43.6661C22.8635 43.6616 25.5415 41.095 25.6841 37.8402V8.79513H30.9903C30.882 8.18821 30.8303 7.57254 30.8359 6.95605L23.5782 6.95605V35.9731C23.4575 39.2445 20.7731 41.8358 17.4996 41.841C16.5214 41.8327 15.5591 41.5922 14.692 41.1392C15.254 41.9177 15.992 42.5525 16.8459 42.9916C17.6998 43.4307 18.6454 43.6619 19.6056 43.6661V43.6661ZM40.9013 18.6498V17.0354C38.9485 17.0362 37.0389 16.4599 35.4125 15.379C36.8382 17.0366 38.765 18.1847 40.9013 18.6498V18.6498Z" fill="#25F4EE"></path>
    <path d="M35.4125 15.3789C33.8102 13.5544 32.9269 11.2089 32.9277 8.78076H30.9903C31.2405 10.1233 31.7617 11.4007 32.522 12.5351C33.2823 13.6696 34.2658 14.6371 35.4125 15.3789V15.3789ZM17.4856 29.6557C16.1268 29.6626 14.8093 30.1236 13.7426 30.9653C12.6759 31.807 11.9212 32.9812 11.5984 34.3011C11.2757 35.6211 11.4035 37.011 11.9614 38.25C12.5194 39.489 13.4755 40.5058 14.6778 41.139C14.0205 40.2313 13.6268 39.1597 13.5404 38.0423C13.4539 36.925 13.678 35.8055 14.1879 34.8076C14.6978 33.8096 15.4737 32.972 16.4297 32.3874C17.3858 31.8027 18.4849 31.4938 19.6056 31.4946C20.2148 31.5026 20.8198 31.5974 21.4023 31.7762V24.3914C20.8074 24.3022 20.207 24.2553 19.6056 24.251H19.2825V29.8662C18.697 29.7092 18.0917 29.6382 17.4856 29.6557V29.6557Z" fill="#FE2C55"></path>
    <path d="M40.9012 18.6494V24.2648C37.286 24.2578 33.7646 23.1134 30.8359 20.9938V35.7481C30.8203 43.1102 24.8477 49.0704 17.4856 49.0704C14.7513 49.0753 12.0829 48.2317 9.84839 46.6558C11.6705 48.6156 14.0405 49.9813 16.6498 50.575C19.2591 51.1686 21.9867 50.9627 24.4773 49.9841C26.9679 49.0055 29.1061 47.2995 30.6134 45.0884C32.1206 42.8773 32.927 40.2635 32.9276 37.5875V22.8751C35.8662 24.9807 39.3919 26.1101 43.007 26.1039V18.8735C42.2992 18.8714 41.5936 18.7963 40.9012 18.6494V18.6494Z" fill="#FE2C55"></path>
    <path d="M30.836 35.7483V20.9941C33.7736 23.1016 37.2999 24.2312 40.9153 24.2228V18.6076C38.7795 18.1566 36.8481 17.0234 35.4125 15.3789C34.2658 14.6371 33.2823 13.6696 32.522 12.5351C31.7617 11.4007 31.2405 10.1233 30.9903 8.78076H25.6842V37.8404C25.6325 39.1053 25.1881 40.3227 24.4127 41.3234C23.6373 42.3242 22.5694 43.0585 21.3575 43.4243C20.1455 43.7902 18.8497 43.7695 17.6501 43.365C16.4505 42.9605 15.4066 42.1924 14.6637 41.1674C13.4612 40.5343 12.5048 39.5174 11.9467 38.2784C11.3886 37.0393 11.2607 35.6492 11.5835 34.3292C11.9063 33.0091 12.6611 31.8348 13.728 30.9931C14.7949 30.1513 16.1125 29.6905 17.4715 29.6837C18.0809 29.6892 18.6863 29.7838 19.2684 29.9646V24.3492C16.6862 24.393 14.1725 25.1871 12.0339 26.6348C9.89524 28.0825 8.22401 30.1211 7.22396 32.5022C6.22392 34.8833 5.93826 37.5038 6.40183 40.0445C6.8654 42.5851 8.05816 44.9359 9.83468 46.8103C12.0911 48.3343 14.7633 49.1237 17.4857 49.0706C24.8478 49.0706 30.8204 43.1104 30.836 35.7483V35.7483Z" fill="black"></path>
</svg>