<svg xmlns="http://www.w3.org/2000/svg" width="22" height="22" viewBox="0 0 50 40" focusable="false"><path fill="#40B9FA" fill-rule="evenodd" d="M43.556 6.483c2.06-1.235 3.643-3.19 4.39-5.52-1.93 1.143-4.065 1.976-6.338 2.42-1.822-1.937-4.415-3.15-7.288-3.15-5.51 0-9.977 4.468-9.977 9.98 0 .78.087 1.545.257 2.274C16.306 12.07 8.953 8.097 4.03 2.06c-.858 1.475-1.35 3.188-1.35 5.018 0 3.463 1.762 6.516 4.438 8.307-1.635-.053-3.174-.5-4.52-1.248v.125c0 4.836 3.44 8.87 8.005 9.787-.837.226-1.72.35-2.63.35-.644 0-1.267-.064-1.876-.18 1.268 3.963 4.956 6.85 9.32 6.93-3.413 2.677-7.715 4.275-12.39 4.275-.807 0-1.602-.047-2.382-.14 4.415 2.828 9.66 4.48 15.297 4.48 18.356 0 28.395-15.205 28.395-28.394 0-.43-.012-.862-.03-1.29 1.95-1.407 3.64-3.164 4.98-5.168-1.79.796-3.71 1.332-5.73 1.57z"></path></svg>