<svg xmlns="http://www.w3.org/2000/svg" width='40' viewBox="0 0 40 26"><path fill="#F7B600" d="M1 22h38v3H1z"></path><path fill="#1A1F71" d="M1 1h38v3H1zm14.46 7l-4.13 9.84H8.64L6.61 9.99c-.12-.48-.23-.66-.61-.86-.61-.34-1.62-.65-2.51-.84L3.55 8h4.33c.55 0 1.05.37 1.17 1l1.07 5.7L12.78 8h2.68zM26 14.63c.01-2.6-3.59-2.74-3.57-3.9.01-.35.34-.73 1.08-.82.36-.05 1.37-.08 2.51.44l.45-2.09c-.61-.22-1.4-.43-2.38-.43-2.52 0-4.29 1.34-4.3 3.25-.02 1.42 1.26 2.21 2.23 2.68.99.48 1.33.79 1.32 1.22-.01.66-.79.95-1.52.96-1.28.02-2.02-.35-2.61-.62l-.46 2.16c.6.27 1.69.51 2.83.52 2.66 0 4.41-1.32 4.42-3.37m6.65 3.22H35L32.94 8h-2.17c-.49 0-.9.28-1.08.72l-3.82 9.12h2.67l.53-1.47h3.27l.31 1.48zm-2.85-3.49l1.34-3.7.77 3.7H29.8zM19.09 8l-2.1 9.84h-2.55L16.55 8h2.54z"></path></svg>