<svg xmlns="http://www.w3.org/2000/svg" width='50' viewBox="0 0 56 56" focusable="false"><path d="M36.76 30.51c-2.26 0-4.11 1.88-4.11 4.19s1.84 4.19 4.11 4.19 4.11-1.88 4.11-4.19-1.84-4.19-4.11-4.19zm0 6.38c-1.16 0-2.11-.98-2.11-2.19s.95-2.19 2.11-2.19 2.11.98 2.11 2.19-.95 2.19-2.11 2.19z"></path><path d="M48.45 50c.94-1.08 1.55-2.47 1.55-3.91v-4.86c1.18-.98 2-2.68 2-3.91v-5.86c0-1.3-.84-2.86-2-3.75v-4.25c0-2.5-1.89-5.47-4.32-6.26l-1.2-3.39c-.65-2.17-2.65-3.68-4.88-3.68-.22 0-.44.02-.66.05L36.91 7.1a4.644 4.644 0 00-3.02-2.03c-1.25-.22-2.49.04-3.49.73L12.71 17h-1.7C8.14 17 6 20.41 6 23.47V46.1c0 1.38.47 2.8 1.3 3.91H1v2h54v-2h-6.55zM50 37.33c0 1-1.18 2.67-1.88 2.67H35.71c-2.47 0-4.58-3.02-4.58-5.5s2.12-5.5 4.58-5.5h12.41c.74 0 1.88 1.5 1.88 2.47v5.86zm-7.42-22.89l.9 2.56H23.66l14.98-4.71.1-.03c1.59-.47 3.34.51 3.84 2.18zM31.51 7.47c.59-.41 1.29-.56 1.99-.42.71.14 1.33.55 1.73 1.16l1.68 2.54L16.99 17h-.54l15.06-9.53zM11.01 50C9.24 50 8 47.94 8 46.09V23.47C8 21.46 9.39 19 11.01 19h33.43c1.76 0 3.55 2.6 3.55 4.47V27H35.71c-3.71 0-6.58 4.03-6.58 7.5S32 42 35.71 42H48v4.09c0 1.93-1.79 3.91-3.55 3.91H11.01z"></path><path d="M18.2 33.41c-1.48 0-2.59-.78-2.59-1.48s1.11-1.48 2.59-1.48 2.59.78 2.59 1.48c0 .61.5 1.11 1.11 1.11s1.1-.5 1.1-1.11c0-1.77-1.56-3.22-3.7-3.59v-1.2c0-.61-.5-1.11-1.11-1.11-.61 0-1.11.5-1.11 1.11v1.2c-2.14.37-3.7 1.82-3.7 3.59 0 2.07 2.11 3.69 4.8 3.69.28 0 2.59.78 2.59 1.48s-1.11 1.48-2.59 1.48c-1.48 0-2.59-.78-2.59-1.48 0-.61-.5-1.11-1.11-1.11s-1.11.5-1.11 1.11c0 1.77 1.56 3.22 3.7 3.59v1.2c0 .61.5 1.11 1.11 1.11.61 0 1.11-.5 1.11-1.11v-1.2c2.14-.37 3.7-1.82 3.7-3.59.01-2.07-2.1-3.69-4.79-3.69z"></path></svg>