<svg xmlns="http://www.w3.org/2000/svg" viewBox="0 0 56 56" focusable="false"><path d="M28 52.65c-4.58 0-11.86-11.28-11.86-24.65S22.66 3.35 28 3.35c6.11 0 11.86 13.89 11.86 24.65 0 13.61-7.18 24.65-11.86 24.65zm0-47.3c-3.38 0-9.86 9.57-9.86 22.65 0 12.85 7 22.65 9.86 22.65s9.86-9.57 9.86-22.65c0-12.86-6.57-22.65-9.86-22.65z" fill="#7e94aa"></path><path d="M28 52.65A24.65 24.65 0 1152.65 28 24.68 24.68 0 0128 52.65zm0-47.3A22.65 22.65 0 1050.65 28 22.67 22.67 0 0028 5.35z" fill="#7e94aa"></path><path fill="#7e94aa" d="M27 4.35h2v47.3h-2z"></path><path d="M28 17c-7.88 0-13.13-1.66-17-5.37l1.38-1.45C15.85 13.51 20.67 15 28 15s12.15-1.49 15.64-4.82L45 11.63C41.13 15.34 35.88 17 28 17zm0 35.65a24.55 24.55 0 01-17-6.83l-.76-.73.76-.72C14.87 40.66 20.12 39 28 39s13.13 1.66 17 5.37l.76.72-.76.73a24.55 24.55 0 01-17 6.83zM13.16 45.1a22.62 22.62 0 0029.68 0C39.42 42.27 34.78 41 28 41s-11.42 1.27-14.84 4.1zM4.35 27h47.3v2H4.35z" fill="#7e94aa"></path><rect x="1" y="19.5" width="54" height="17" rx="4" fill="#ecf5fe"></rect><path d="M51 37.5H5a5 5 0 01-5-5v-9a5 5 0 015-5h46a5 5 0 015 5v9a5 5 0 01-5 5zm-46-17a3 3 0 00-3 3v9a3 3 0 003 3h46a3 3 0 003-3v-9a3 3 0 00-3-3z" fill="#7e94aa"></path><path d="M12.37 24.38L13 27.3c.16.73.32 1.56.46 2.43.15-.86.39-1.7.57-2.42l.81-2.93h1.88l.76 2.82c.21.83.43 1.67.58 2.53.12-.86.29-1.7.48-2.55l.67-2.8h2.29l-2.33 7.24H17l-.73-2.54c-.2-.73-.33-1.34-.5-2.27a16.67 16.67 0 01-.48 2.25l-.76 2.56h-2.31L10 24.38zm12.21 0l.65 2.92c.16.73.32 1.56.46 2.43.15-.86.39-1.7.57-2.42l.81-2.93H29l.76 2.82c.21.83.43 1.67.58 2.53.12-.86.29-1.7.48-2.55l.67-2.8h2.29l-2.33 7.24H29.2l-.73-2.54c-.2-.73-.33-1.34-.5-2.27a18.37 18.37 0 01-.48 2.25l-.76 2.56h-2.3l-2.22-7.24zm12.2 0l.65 2.92c.16.73.33 1.56.47 2.43.14-.86.39-1.7.57-2.42l.8-2.93h1.88L42 27.2c.21.83.42 1.67.58 2.53.12-.86.28-1.7.47-2.55l.68-2.8H46l-2.33 7.24h-2.26l-.73-2.54c-.2-.73-.33-1.34-.51-2.27a18.55 18.55 0 01-.47 2.25l-.77 2.56h-2.29l-2.22-7.24z" fill="#7e94aa"></path></svg>